<svg viewBox="0 0 127.993 110.003" xmlns="http://www.w3.org/2000/svg" xmlns:xlink="http://www.w3.org/1999/xlink"><defs><linearGradient id="a"><stop stop-color="#b47b3b" offset="0"/><stop stop-color="#e5d3b4" offset="1"/></linearGradient><linearGradient id="f" x1="174.85" x2="91.511" y1="406.34" y2="332.97" gradientUnits="userSpaceOnUse"><stop stop-color="#eac17f" offset="0"/><stop stop-color="#f2dabb" offset="1"/></linearGradient><linearGradient id="b" x2="0" y1="292.26" y2="382.14" gradientUnits="userSpaceOnUse" xlink:href="#a"/><linearGradient id="d" x1="4642.8" x2="4649.3" y1="454.22" y2="483.21" gradientUnits="userSpaceOnUse" xlink:href="#a"/><linearGradient id="e" x1="4395.7" x2="4413.9" y1="261.78" y2="295.49" gradientUnits="userSpaceOnUse" xlink:href="#a"/><filter id="c" x="-.25" y="-.25" width="1.5" height="1.5"><feGaussianBlur in="SourceAlpha" result="blur" stdDeviation="3"/><feColorMatrix result="bluralpha" values="1 0 0 0 0 0 1 0 0 0 0 0 1 0 0 0 0 0 0.6 0"/><feOffset dx="3" dy="3" in="bluralpha" result="offsetBlur"/><feMerge><feMergeNode in="offsetBlur"/><feMergeNode in="SourceGraphic"/></feMerge></filter><filter id="g" x="-.25" y="-.25" width="1.5" height="1.5"><feTurbulence baseFrequency="0.031541218637992828 0.16200716845878138"/><feColorMatrix result="result91" values="2 0 0 0 0 0 0 0 0 0 0 0 0 0 0 0 0 0 0.5 0.5"/><feDisplacementMap in="SourceGraphic" in2="result91" result="fbSourceGraphic" scale="21.587" xChannelSelector="R"/><feColorMatrix in="fbSourceGraphic" result="fbSourceGraphicAlpha" values="0 0 0 -1 0 0 0 0 -1 0 0 0 0 -1 0 0 0 0 1 0"/><feGaussianBlur in="fbSourceGraphicAlpha" result="blur" stdDeviation="1"/><feColorMatrix result="bluralpha" values="1 0 0 0 0 0 1 0 0 0 0 0 1 0 0 0 0 0 0.4 0"/><feOffset dx="3" dy="3" in="bluralpha" result="offsetBlur"/><feMerge><feMergeNode in="offsetBlur"/><feMergeNode in="fbSourceGraphic"/></feMerge></filter><filter id="h" x="-.25" y="-.25" width="1.5" height="1.5"><feTurbulence baseFrequency="0.017204301075268821 0.1032258064516129"/><feColorMatrix result="result91" values="2 0 0 0 0 0 0 0 0 0 0 0 0 0 0 0 0 0 0.5 0.5"/><feDisplacementMap in="SourceGraphic" in2="result91" result="fbSourceGraphic" scale="15.873" xChannelSelector="R"/><feColorMatrix in="fbSourceGraphic" result="fbSourceGraphicAlpha" values="0 0 0 -1 0 0 0 0 -1 0 0 0 0 -1 0 0 0 0 1 0"/><feGaussianBlur in="fbSourceGraphicAlpha" result="blur" stdDeviation="1"/><feColorMatrix result="bluralpha" values="1 0 0 0 0 0 1 0 0 0 0 0 1 0 0 0 0 0 0.4 0"/><feOffset dx="3" dy="3" in="bluralpha" result="offsetBlur"/><feMerge><feMergeNode in="offsetBlur"/><feMergeNode in="fbSourceGraphic"/></feMerge></filter><filter id="i" x="-.25" y="-.25" width="1.5" height="1.5"><feTurbulence baseFrequency="0.04157706093189964 0.13476702508960575" seed="85"/><feColorMatrix result="result91" values="2 0 0 0 0 0 0 0 0 0 0 0 0 0 0 0 0 0 0.5 0.5"/><feDisplacementMap in="SourceGraphic" in2="result91" result="fbSourceGraphic" scale="16.825" xChannelSelector="R"/><feColorMatrix in="fbSourceGraphic" result="fbSourceGraphicAlpha" values="0 0 0 -1 0 0 0 0 -1 0 0 0 0 -1 0 0 0 0 1 0"/><feGaussianBlur in="fbSourceGraphicAlpha" result="blur" stdDeviation="1"/><feColorMatrix result="bluralpha" values="1 0 0 0 0 0 1 0 0 0 0 0 1 0 0 0 0 0 0.4 0"/><feOffset dx="3" dy="3" in="bluralpha" result="offsetBlur"/><feMerge><feMergeNode in="offsetBlur"/><feMergeNode in="fbSourceGraphic"/></feMerge></filter><filter id="j" x="-.25" y="-.25" width="1.5" height="1.5"><feTurbulence baseFrequency="0.02548476454293629 0.1032258064516129"/><feColorMatrix result="result91" values="2 0 0 0 0 0 0 0 0 0 0 0 0 0 0 0 0 0 0.5 0.5"/><feDisplacementMap in="SourceGraphic" in2="result91" result="fbSourceGraphic" scale="15.873" xChannelSelector="R"/><feColorMatrix in="fbSourceGraphic" result="fbSourceGraphicAlpha" values="0 0 0 -1 0 0 0 0 -1 0 0 0 0 -1 0 0 0 0 1 0"/><feGaussianBlur in="fbSourceGraphicAlpha" result="blur" stdDeviation="1"/><feColorMatrix result="bluralpha" values="1 0 0 0 0 0 1 0 0 0 0 0 1 0 0 0 0 0 0.4 0"/><feOffset dx="3" dy="3" in="bluralpha" result="offsetBlur"/><feMerge><feMergeNode in="offsetBlur"/><feMergeNode in="fbSourceGraphic"/></feMerge></filter></defs><path transform="matrix(.15672 0 0 .16018 -661.883 27.19)" d="M4568 290.92c-25.272 25.273-25.272 66.254 0 91.526a64.774 64.774 0 0 0 14.606 10.982 65.433 65.433 0 0 1-5.392-4.817c-25.273-25.273-25.273-66.254 0-91.526 20.831-20.831 52.317-24.47 76.898-10.96-25.408-20.314-62.572-18.746-86.112 4.795z" fill="url(#b)" filter="url(#c)" stroke="#815f37" stroke-width="6.379"/><path transform="matrix(.21504 0 0 .21972 -925.773 1.68)" d="M4874.4 243.76c-3.51 37.42-17.104 73.928-39.538 104.17-23.944 33.45-57.842 58.561-94.567 76.56-68.208 33.523-147.34 45.907-222.23 31.764-24.967-4.831-49.511-13.362-70.552-27.9-1.776-.532 1.198 2.525 1.584 3.032 23.035 25.3 56.804 37.652 89.845 43.15 15.027 2.466 30.224 3.48 45.444 2.936 20.657.269 41.339-1.072 61.6-5.267 60.103-11.337 118.85-37.05 162.84-80.31 40.184-38.048 64.555-92.463 65.939-147.8-.011-.144-.152-.519-.362-.34z" fill="url(#d)" filter="url(#c)" stroke="#815f37" stroke-width="4.65"/><path transform="matrix(.21504 0 0 .21972 -925.773 1.68)" d="M4519.8 204.13c-27.81 2.07-53.454 14.64-77.856 27.266-34.478 18.115-65.003 42.512-96.624 64.985-6.343 5.483-15.264 3.495-22.152.498-.33 2.725 7.608 6.042 10.266 6.79 13.05 3.428 23.742-3.134 34.573-9.49 35.408-21.666 143.53-113.66 183.4-73.94-.17-3.833-4.28-6.745-6.856-9.322-6.655-5.778-16.24-7.015-24.754-6.789z" fill="url(#e)" filter="url(#c)" stroke="#815f37" stroke-width="4.65"/><path d="M137.24 317.87a66.128 66.128 0 0 0-2.471.02c-.714.002-1.408-.003-2.122.02-8.905 0-17.786 2.077-25.96 5.646-13.879 6.06-26.123 17.454-30.96 32.33-2.676 8.629-2.853 18.208-.04 26.823.922 2.558 4.428 3.535 6.442 1.65 9.4-7.28 19.045-14.643 30.28-18.67 3.764-1.172 8.291-2.507 11.91-.297 2.39 1.62 3.222 4.983 1.79 7.555-2.573 5.348-7.253 9.215-11.267 13.421-4.6 4.722-10.042 8.964-13.038 15.012-2.201 4.261-1.095 10.007 2.802 12.825 5.836 4.232 13.087 5.828 20.083 6.76 16.985 1.792 34.598-2.305 49.04-11.631 10.738-6.839 19.002-17.968 21.444-30.76 2.263-10.955.413-22.812-5.527-32.271-7.749-13.1-21.107-21.9-35.379-25.868a62.609 62.609 0 0 0-17.028-2.565zm-2.958 70.069c5.601 0 10.14 4.634 10.14 10.359s-4.538 10.359-10.14 10.359-10.139-4.634-10.139-10.359 4.538-10.359 10.14-10.359z" fill="url(#f)" stroke="#815f37" stroke-width="1.011" transform="translate(-73.143 -317.36)"/><path d="M62.777 1.91c-.763-.009-1.518.011-2.281.031-.662.002-1.307-.021-1.969 0-1.705 0-3.427.09-5.125.25v44.004c3.034 4.058 3.757 8.116 0 12.173v12.23a12.715 12.715 0 0 1 7.469-2.407c1.586 0 3.098.284 4.5.812v-67a58.581 58.581 0 0 0-2.594-.093zm5.75.344v68.5c3.086 2.33 5.094 6.022 5.094 10.188S71.613 88.8 68.527 91.13v10.094a71.259 71.259 0 0 0 11.938-2.781V4.88c-.629-.197-1.242-.418-1.875-.594a58.23 58.23 0 0 0-10.062-2.031zm-18.281.312c-4.064.612-8.068 1.687-11.938 3.094v41.156c.47-.183.961-.36 1.437-.531 3.314-1.032 7.238-2.196 10.5-.563zM83.59 5.941v91.406a69.53 69.53 0 0 0 12-5.937V11.972c-3.743-2.463-7.817-4.474-12-6.031zm-48.438.969c-.24.101-.48.177-.719.281a57.542 57.542 0 0 0-11.219 6.5v41.375c3.819-2.598 7.762-4.99 11.938-6.906zm63.562 7.281v74.594c6.68-3.857 14.507-12.539 16.719-18.188 4.603-10.922 5.578-22.416.25-34.906-2.45-6.257-12.3-17.94-16.969-21.5zm-78.656 2C15.15 20.42 10.985 25.554 8.089 31.38v32.97c1.197.373 2.55.167 3.531-.75 2.764-2.142 5.589-4.29 8.438-6.345zM50.246 62.63c-2.392 3.234-5.49 5.951-8.25 8.844-1.19 1.221-2.442 2.396-3.688 3.594v23.438c3.8 1.549 7.897 2.364 11.938 2.937V88.004c-1.351-2.025-2.156-4.445-2.156-7.062s.805-5.038 2.156-7.063zM35.152 78.223c-4.976 4.819-6.884 12.067-2.656 15.97.857.62 1.74 1.806 2.656 2.312zm18.25 13.062v10.47c3.971.284 8.001.234 11.969-.157v-8.719a12.713 12.713 0 0 1-4.5.844c-2.787 0-5.37-.922-7.469-2.438z" fill="#f5dbb2"/><path transform="matrix(.21504 0 0 .21972 -938.483 23.61)" d="M4510.6 49.417a46.956 34.527 0 1 1-93.913 0 46.956 34.527 0 1 1 93.913 0z" fill="#ff1027" filter="url(#g)" stroke="#af1f2e" stroke-width="9.3"/><path transform="matrix(.21504 0 0 .21972 -883.463 7.28)" d="M4510.6 49.417a46.956 34.527 0 1 1-93.913 0 46.956 34.527 0 1 1 93.913 0z" fill="#eff504" filter="url(#h)" stroke="#b39104" stroke-width="9.3"/><path transform="matrix(.21504 0 0 .21972 -859.223 22.8)" d="M4510.6 49.417a46.956 34.527 0 1 1-93.913 0 46.956 34.527 0 1 1 93.913 0z" fill="#00cb19" filter="url(#i)" stroke="#008319" stroke-width="9.3"/><path transform="matrix(.21504 0 0 .21972 -914.623 8)" d="M4510.6 49.417a46.956 34.527 0 1 1-93.913 0 46.956 34.527 0 1 1 93.913 0z" fill="#0830ff" filter="url(#j)" stroke="#08307f" stroke-width="9.3"/></svg>